<?xml version="1.0" encoding="utf-8"?>
<!-- Generator: Adobe Illustrator 25.4.1, SVG Export Plug-In . SVG Version: 6.00 Build 0)  -->
<svg version="1.1" id="Layer_1" xmlns="http://www.w3.org/2000/svg" xmlns:xlink="http://www.w3.org/1999/xlink" x="0px" y="0px"
	 viewBox="0 0 529.41 225.49" style="enable-background:new 0 0 529.41 225.49;" xml:space="preserve">
<style type="text/css">
	.st0{fill:#093817;stroke:#ECE7C4;stroke-width:10;stroke-miterlimit:10;}
	.st1{fill:#D15329;stroke:#ECE7C4;stroke-width:6;stroke-miterlimit:10;}
	.st2{fill:#F15A29;}
	.st3{fill:#FFA622;}
	.st4{fill:#EBE7C4;}
	.st5{fill:#ECE7C4;}
</style>
<g>
	<g id="Layer_4_00000042733222866438541530000017617936201923160504_">
		<rect x="9.43" y="10.5" class="st0" width="205.95" height="205.95"/>
	</g>
	<g id="Layer_1_00000030473235308102154490000014571815527736000921_">
		<polygon class="st1" points="14.8,64.07 53.73,101.63 12.54,111.14 36.75,134 10.73,166.81 61.19,180.84 61.19,212.07 
			105.09,186.27 106.9,212.07 150.13,163.64 186.79,209.13 192.44,195.1 154.66,160.92 208.29,121.1 183.17,116.8 214.17,76.97 
			183.4,73.12 175.7,20.62 139.72,42.79 120.03,15.41 105.77,55.24 73.41,13.15 60.96,30.8 28.16,20.85 34.26,54.57 		"/>
	</g>
	<g id="Layer_3_00000059307076843876954960000012320524251531871360_">
		<path class="st2" d="M83.55,72.91c-0.92,2.58-1.07,5.37-0.44,8.04c0.21,0.78,0.92,1.31,1.72,1.32c0.79-0.03,1.48-0.56,1.72-1.32
			c1.54-3.75-1.04-7.87-4.5-9.41c-1.79-0.82-3.76-1.15-5.72-0.97c-1.2,0.07-2.32,0.58-3.17,1.43c-0.85,0.92-1.2,2.19-0.94,3.42
			c0.26,0.95,1.25,1.5,2.2,1.24c0.94-0.28,1.49-1.25,1.25-2.2c0,0.17,0,0.2,0,0.06s0-0.11,0,0.08c0.32-0.39-0.26,0.23,0.09-0.18
			c-0.16,0.19,0,0,0.1-0.09c0.1-0.09,0.08-0.08,0,0l0.22-0.14c0.11-0.05,0.11-0.06,0,0l0.18-0.06c0,0,0.56-0.11,0.27-0.07
			c0.35-0.03,0.7-0.03,1.05,0h0.45c0.06,0,0.54,0.06,0.23,0c0.35,0.05,0.7,0.12,1.05,0.21c0.54,0.12,1.06,0.31,1.55,0.58
			c0.28,0.15,0.56,0.32,0.82,0.51c0.14,0.1-0.1-0.11,0.12,0.09c0.22,0.2,0.26,0.24,0.39,0.36c0.12,0.13,0.23,0.24,0.34,0.37
			c-0.16-0.19,0,0,0.07,0.11c0.18,0.25,0.33,0.52,0.46,0.8c0.22,0.46-0.08-0.29,0.07,0.2c0.05,0.16,0.1,0.32,0.14,0.49
			c0.04,0.16,0.06,0.27,0.09,0.41c0.03,0.14,0-0.24,0,0.1c0,0.16,0,0.33,0,0.49c0,0.16-0.1,0.53,0,0.19
			c-0.07,0.32-0.17,0.64-0.29,0.95h3.45c-0.06-0.26-0.11-0.52-0.16-0.79v-0.2c0,0.11,0,0.11,0,0c0-0.13,0-0.26,0-0.4
			c-0.04-0.56-0.04-1.13,0-1.69c0.02-0.44,0.08-0.88,0.18-1.32c0.12-0.59,0.29-1.16,0.5-1.72c0.26-0.95-0.3-1.94-1.25-2.2
			c-0.95-0.24-1.91,0.32-2.2,1.25L83.55,72.91z"/>
		<path class="st2" d="M93.6,95.08c-0.18,1.41-0.05,2.85,0.37,4.2c0.19,0.7,0.56,1.33,1.08,1.84c0.7,0.66,1.7,0.89,2.62,0.61
			c0.83-0.34,1.53-0.94,2-1.7c0.37-0.47,0.69-0.98,0.95-1.51c0.67-1.28,0.9-2.75,0.64-4.17c-0.26-1.31-1.05-2.45-2.19-3.15
			c-1.39-0.74-3.06-0.76-4.47-0.05c-1.21,0.56-2.25,1.42-3.02,2.5c-0.85,1.16-1.19,2.62-0.95,4.03c0.25,1.56,1.38,2.83,2.9,3.26
			c1.6,0.43,3.28-0.24,4.15-1.65c0.5-0.85,0.21-1.95-0.64-2.45c-0.85-0.5-1.95-0.21-2.45,0.64l-0.04,0.08
			c-0.1,0.15-0.06,0.11,0.11-0.14c0,0-0.11,0.11-0.13,0.13l0.22-0.16l-0.16,0.1c-0.26,0.18,0.34-0.09,0.14-0.05
			c-0.08,0.01-0.15,0.04-0.22,0.06c-0.32,0.1,0.36,0,0.15,0c-0.07,0-0.16,0-0.24,0c-0.32,0,0.44,0.14,0.06,0
			c-0.07-0.03-0.15-0.05-0.23-0.06c0.3,0,0.34,0.16,0.13,0s0.05-0.06,0.08,0.08c-0.07-0.08-0.14-0.15-0.22-0.22
			c0,0,0.24,0.37,0.09,0.11l-0.16-0.27c-0.12-0.2,0.1,0,0.06,0.14c0-0.06-0.09-0.28-0.11-0.36c-0.06-0.26,0.09-0.12,0,0.11
			c0.01-0.11,0.01-0.21,0-0.32c0-0.07,0-0.14,0-0.21c0-0.38-0.11,0.41,0,0.05c0-0.09,0.1-0.54,0.18-0.56
			c0.08-0.01-0.19,0.35-0.04,0.11c0.08-0.14,0.15-0.28,0.24-0.41c0.05-0.06,0.1-0.13,0.14-0.2l-0.14,0.18l0.15-0.19
			c0.14-0.15,0.27-0.29,0.41-0.43l0.18-0.16l0.09-0.08c0.15-0.12,0.12-0.1-0.09,0.06c0.21-0.09,0.4-0.28,0.61-0.39l0.21-0.11
			l0.11-0.05c0.18-0.08,0.15-0.06-0.09,0c0.2-0.03,0.39-0.09,0.57-0.16c0.37-0.11-0.32,0-0.07,0h0.29c0.09,0,0.39,0.07,0.11,0
			l0.21,0.06c0.37,0.08-0.26-0.15-0.06,0l0.22,0.13c0.31,0.16-0.24-0.23-0.08-0.06c0.06,0.06,0.12,0.11,0.18,0.17
			c0.06,0.06,0.26,0.29,0.06,0.05c-0.21-0.24,0,0,0,0.07s0.1,0.19,0.15,0.27c0.16,0.29-0.11-0.38,0-0.04
			c0.05,0.17,0.09,0.34,0.14,0.51c0.09,0.37,0-0.44,0-0.06c0,0.07,0,0.14,0,0.21s0,0.21,0,0.31s0.06,0.05,0-0.12
			c-0.01,0.25-0.08,0.49-0.18,0.72c-0.02,0.13-0.07,0.25-0.13,0.36c0,0,0.19-0.38,0-0.08c-0.09,0.19-0.19,0.38-0.29,0.56
			c-0.11,0.18-0.23,0.36-0.34,0.54l-0.23,0.31c-0.25,0.35,0.25-0.29,0,0.04l-0.23,0.26c-0.11,0.11-0.34,0.21,0,0l0.23-0.09
			c0.29,0,0.34,0,0.16,0h0.29c0.28,0.14,0.34,0.15,0.17,0.06l0.21,0.16c-0.09-0.11-0.09-0.09,0,0c0.17,0.28-0.06-0.11-0.09-0.16
			c-0.19-0.31,0.1,0.31,0,0.09c-0.1-0.23-0.09-0.27-0.13-0.41c-0.07-0.26-0.13-0.54-0.18-0.82s0,0,0,0.06
			c-0.03-0.18-0.04-0.37-0.05-0.55c-0.03-0.56-0.01-1.12,0.06-1.67c0-0.48-0.18-0.93-0.52-1.27c-0.7-0.7-1.83-0.7-2.53,0
			c-0.31,0.35-0.49,0.8-0.52,1.27L93.6,95.08z"/>
		<path class="st3" d="M70.93,67.24c-3.09,5.16-5.23,10.83-6.34,16.75l4.29,11.09l7.02,5.01l1.13,7.57l2.57,8.03l-0.98,14.96
			l-1.59,41.86l5.01,10.64l10.31,2.26l9.15-18.1l7.24-3.85l1.36-2.04l16.52,6.34l20.37-2.72l7.92-11.35l3.85-15.62l-4.07-14.03
			l6.79-4.07v-4.76l19.24-3.85l2.94-8.58l-5.2-6.54l-17.43-5.72l-46.16-6.31l-10.86-5.01l-9.98-11.97l-13.13-4.07L70.93,67.24z"/>
	</g>
	<g id="Layer_2_00000176763148751546623370000006312525239749957787_">
		<path class="st4" d="M77.08,124.96c-4.57,2.22-5.85,5.81-6.04,10.25c-0.22,3.24-0.7,6.47-1.43,9.63
			c-0.12,0.58-1.82,1.43-1.97,1.31c-0.83-0.76-2.01-1.84-1.95-2.74c0.27-3.53,0.96-7.03,1.49-10.55c0.21-1.37,0.36-2.75,0.72-4.1
			c1.07-4.42,5.01-6.34,8.07-8.96c2.15-1.82,2.49-8.67,0.3-10.41c-0.47-0.26-1-0.38-1.53-0.34c-1.48-0.04-2.97-0.08-4.44,0
			c-2.86,0.16-5.28-0.72-6.98-2.98s-4.12-2.82-6.71-3.12c-3.84-0.44-5.58,0.41-9.4-0.1c-0.61-0.08-3.1,1.49-3.45,1.09
			c-0.54-0.64,9.05-2.86,9.07-3.63c0-0.43-5.46-4.33-4.86-4.29c2.62,0.16,1.37,1.92,3.98,2.27c3.14,0.43,6.3,0.76,9.38,1.47
			c1.39,0.4,2.64,1.21,3.58,2.31c2.5,2.82,4.16,3.35,10.25,2.54c0.53-1.59,0.31-2.6-1.36-3.73c-6.44-4.4-10.25-10.59-10.42-18.47
			c-0.17-3.62,0.83-7.26,1.38-11.13c-6.43-1.6-13.16-1.48-19.52,0.34c-2.15,0.58-4.13,1.79-6.29,2.3c-1.13,0.13-2.26-0.28-3.05-1.09
			c-0.76-0.93-0.4-2,1.05-2.7c9.17-4.47,18.71-5.25,28.5-2.86c2.07,0.5,3.15-0.34,4.69-1.29c2.52-1.55,2.47-3.68,2.37-6.11
			c-0.23-5.88,0.84-11.74,3.12-17.16c1.18-2.68,2.54-5.28,4.08-7.77c1.49-2.5,3.45-2.78,4.41-0.72c0.29,0.74,0.24,1.57-0.15,2.26
			c-3.99,5.61-6.59,11.69-6.84,18.69c-0.08,2.25-0.46,4.49-0.76,7.15c2.02-0.39,3.4-0.84,4.81-0.89c8.34-0.29,15.02,3.09,20.19,9.51
			c1.09,1.4,1.94,2.98,2.5,4.66c0.61,1.74,1.58,2.53,3.52,2.47c0.5-2.26,1.31-4.51,1.37-6.76c0.04-1.27-1.27-2.52-1.84-3.84
			c-0.64-1.43-1.59-2.92-1.6-4.38c-0.04-5.51-0.98-4.82-0.63-10.32c0.06-0.86,4.83-9.3,5.6-10.08c0.63,0.86-0.47,3.15-0.47,4.02
			c0.03,3.72-0.16,7.44-0.55,11.14c-0.36,3.32-0.62,6.34,2.06,9.07c1.59,1.58,2.15,3.93,1.43,6.05c-0.47,1.72-0.78,3.47-0.91,5.25
			c-0.08,0.66,0.09,1.32,0.49,1.85c2.09,1.91,4.88,2.86,7.7,2.6c1.33-0.07,2.62-1.74,3.85-2.79c2.6-2.21,5.12-4.76,8.75-4.84
			c3.83-0.09,7.67,0.31,11.51,0.49c0.67,0.05,1.35,0.05,2.02,0c1.62-0.18,3.41,0.96,3.45,2.31c0.07,2.15-1.73,2.15-2.95,2.15
			c-3.99-0.1-7.97-0.51-11.96-0.72c-3.45-0.21-5.61,1.92-7.97,4.44c8.84,1.17,17.33,2.21,25.79,3.45
			c6.49,0.94,13.06,1.68,19.36,3.37c5.61,1.49,10.4,4.9,13.09,10.33c3.16,6.39-0.52,12.78-7.05,13.89
			c-4.29,0.72-8.47,1.79-12.68,2.77c-0.63,0.15-1.18,0.55-1.52,1.11c-1.69,4.13-1.66,4.14-4.73,5.79c0.64,5.89,1.9,11.56,1.74,17.16
			c-0.36,13.63-7.87,24.07-21.84,27.22c-6.28,1.43-12.51,0.49-18.51-1.69c-2.93-1.07-5.76-2.45-8.75-3.73
			c-1.57,3.04-4.03,4.52-7.61,4c-1.71,3.95-3.33,7.97-5.17,11.87c-0.98,2.06-2.03,4.29-3.58,5.83c-3.99,3.93-10.82,1.99-13.72-1.47
			c-6.2-7.38-7.03-16.08-5.87-25.21c0.05-0.39,0.11-0.77,0.12-1.16c0.17-6.21,0.27-12.44,0.54-18.64c0.16-3.87,0.57-7.72,0.85-11.58
			C77.18,126.31,77.14,125.64,77.08,124.96z M75.57,97.11c0.22-0.29,0.42-0.61,0.59-0.94c0.36-0.86,0.64-1.75,0.99-2.61
			c2.1-5.35,5.93-9.84,10.88-12.76c1.29-0.72,2.42-0.24,3.13,1.05c0.71,1.29,0.18,2.15-0.99,2.86c-0.91,0.55-1.7,1.3-2.57,1.93
			c-8.25,6.03-11.31,19.41-3.78,28.19c3.68,4.29,7.97,5.72,13.18,4.47c6.67-1.62,11.91-5.72,16.37-10.73
			c2.16-2.32,3.81-5.06,4.86-8.04c2.5-7.97-2.31-14.5-9.47-17.55c-3.36-1.43-6.89-1.63-10.5-1.62c-0.79,0-1.57-1.24-2.35-1.91
			c0.6-0.77,1.29-1.48,2.05-2.1c0.48-0.33,1.29-0.2,1.97-0.28c-1.84-5.79-9.05-11.83-17.25-11.51c-6.9,0.28-13.24,4.17-15.07,12.7
			C66.12,85.59,69.29,93.07,75.57,97.11z M123.37,96.9c-0.8,1.66-0.36,3.65,1.07,4.81c6.45,6.2,12.94,12.38,19.46,18.54
			c1.58,1.49,3.28,3.02,5.72,2.3c2.82-0.82,5.64-1.67,8.36-2.75c2.01-0.82,2.15-2.35,0.31-3.69c-1.23-0.8-2.52-1.51-3.84-2.15
			c-6.01-3.35-11.99-6.76-18.04-10.01c-1.43-0.77-2.15-1.63-1.52-3.1c0.67-1.67,2.07-1.18,3.15-0.59c7.53,4.1,15.02,8.31,22.54,12.4
			c0.9,0.49,1.94,0.68,2.95,0.54c4.71-0.85,9.4-1.82,14.07-2.86c3.67-0.82,5.52-5.6,3.48-8.5c-3.19-4.53-8.05-7.62-13.51-8.58
			c-5.97-1.16-12.08-1.64-18.12-2.46C143,89.94,136.6,89,130.17,88.15c-3.33-0.45-6.67-0.8-10.19-1.22c1.35,3.35,3.1,5.8,6.29,6.97
			c0.94,0.34,1.72,1.06,2.63,1.48c1.47,0.72,1.2,1.86,0.54,2.68c-0.63,0.6-1.51,0.87-2.37,0.72
			C125.8,98.46,124.65,97.59,123.37,96.9z M81.66,118.84c-0.25,3.83-0.56,7.29-0.72,10.73c-0.36,8.99-0.64,17.98-0.98,26.97
			c-0.11,3.02-0.23,6.04-0.49,9.05c-0.59,5.88,1.53,11.71,5.78,15.83c2.48,2.53,6.69,2.15,8.31-0.99c2.18-4.43,4.14-8.96,5.86-13.59
			c0.4-1.22,0.4-2.53,0-3.75c-1.33-4.29-2.97-8.47-4.34-12.73c-2.73-8.45-5.56-16.88-7.95-25.44
			C86.29,121.79,84.24,120.42,81.66,118.84z M150.21,126.66c-0.04,0.72,0,1.27-0.11,1.8c-0.11,0.61-0.25,1.21-0.44,1.8
			c-2.04,6.81-6.08,12.16-11.44,16.77c-6.28,5.36-13.16,8.91-21.58,8.75c-1.79,0-2.07,1.16-2.62,2.4c-0.66,1.49,0.47,1.76,1.27,2.25
			c0.92,0.56,1.88,1.05,2.86,1.48c7.7,3.44,15.61,4.6,23.66,1.5c7.87-3.05,12.51-9.18,14.35-17.21c1.38-6.47,0.87-13.19-1.49-19.37
			c-0.37-0.52-0.97-0.84-1.62-0.84C152.08,126.1,151.13,126.33,150.21,126.66z M142.64,124.62c-0.24,0.72-0.54,1.41-0.9,2.07
			c-0.66,0.96-1.12,2.42-2.82,1.54c-1.48-0.76-1.67-1.82-0.98-3.3c0.52-1.24,0.99-2.51,1.38-3.8l-6.06-5.57
			c-6.17,9.63-15.19,17.1-25.8,21.37c1.35,2.18,2.5,4.18,3.81,6.07c0.44,0.58,1.11,0.94,1.83,0.99c1.09,0,2.16-0.26,3.13-0.76
			c4.21-2.4,8.42-4.86,12.5-7.47c1.66-1.07,2.92-2.75,4.57-3.84c0.56-0.37,1.92,0,2.62,0.49c0.36,0.24,0.43,1.69,0.06,2.15
			c-3.28,4-7.34,7.3-11.93,9.68c-2.95,1.61-6.17,2.73-9.3,4.1c0.39,1.05,0.79,2.15,1.39,3.7c2.86-0.59,5.9-0.77,8.58-1.83
			c9.01-3.62,16.07-9.55,20.17-18.71C146.57,127.63,146.43,126.73,142.64,124.62L142.64,124.62z M121.55,104.37
			c-4.91,9.09-13.15,15.93-23,19.07c1.58,2.47,3.19,4.71,4.53,7.11c1.24,2.24,2.53,2.7,5.01,1.54c4.99-2.31,9.56-5.46,13.49-9.3
			c2.69-2.84,5.18-5.86,7.45-9.05c0.42-0.76,0.42-1.69,0-2.45C126.66,108.91,124.15,106.74,121.55,104.37L121.55,104.37z
			 M90.9,123.72c2.47,7.72,4.87,15.22,7.26,22.72c1.32,4.12,2.49,8.29,3.99,12.34c0.61,1.63,1.67,3.89,3,4.29
			c2.3,0.72,2.67-1.95,3.42-3.58c0.04-0.07,0.08-0.14,0.12-0.2c3.01-4.17,3.9-7.96,0.29-12.73c-5.01-6.61-9.09-13.91-13.59-20.9
			C94.53,124.04,92.67,123.23,90.9,123.72z"/>
	</g>
</g>
<g>
	<g>
		<path class="st5" d="M264.72,91.88v-4.77l10.26-2.07l-1.71,2.43V34.1l1.98,1.53h-16.47l2.16-1.89l-2.07,11.43h-5.49V28.88h48.96
			v16.29h-5.49l-1.98-11.07l2.07,1.53h-16.47l1.98-1.53v53.37l-1.62-2.43L291,87.11v4.77H264.72z"/>
		<path class="st5" d="M307.74,91.88v-4.77l7.74-1.8l-1.08,1.53V49.49l1.17,1.62l-7.83-1.89v-4.77l13.68-0.63l1.17,8.73l-1.17-0.36
			c2.7-2.82,5.35-5.01,7.96-6.57c2.61-1.56,5.41-2.34,8.42-2.34c1.92,0,3.96,0.3,6.12,0.9l-0.63,14.31h-5.49l-1.17-9.54l0.99,1.89
			c-0.42-0.12-0.86-0.21-1.31-0.27c-0.45-0.06-0.89-0.09-1.3-0.09c-2.22,0-4.4,0.67-6.53,2.02s-4.09,3.08-5.89,5.17l0.81-2.61v31.77
			l-1.17-1.53l9.54,1.8v4.77H307.74z"/>
		<path class="st5" d="M370.02,92.78c-4.14,0-7.79-0.91-10.93-2.75c-3.15-1.83-5.61-4.53-7.38-8.1c-1.77-3.57-2.66-7.93-2.66-13.1
			c0-5.28,0.91-9.82,2.75-13.63c1.83-3.81,4.44-6.75,7.83-8.82c3.39-2.07,7.36-3.1,11.92-3.1c4.38,0,7.96,0.9,10.75,2.7
			c2.79,1.8,4.86,4.27,6.21,7.42s2.03,6.74,2.03,10.75c0,0.78-0.03,1.56-0.09,2.34c-0.06,0.78-0.15,1.68-0.27,2.7h-34.11v-6.21
			h26.01l-0.81,0.54c0.06-2.46-0.24-4.71-0.9-6.75c-0.66-2.04-1.77-3.67-3.33-4.9c-1.56-1.23-3.63-1.85-6.21-1.85
			c-2.82,0-5.16,0.77-7.02,2.29c-1.86,1.53-3.24,3.62-4.14,6.26c-0.9,2.64-1.35,5.67-1.35,9.09c0,3.66,0.51,6.86,1.53,9.58
			c1.02,2.73,2.57,4.86,4.63,6.39c2.07,1.53,4.64,2.29,7.7,2.29c2.16,0,4.51-0.42,7.07-1.26c2.55-0.84,5.17-2.1,7.88-3.78l3.15,4.95
			c-3.36,2.34-6.77,4.08-10.21,5.22C376.6,92.21,373.26,92.78,370.02,92.78z"/>
		<path class="st5" d="M419.25,92.78c-4.14,0-7.79-0.91-10.93-2.75c-3.15-1.83-5.61-4.53-7.38-8.1c-1.77-3.57-2.66-7.93-2.66-13.1
			c0-5.28,0.91-9.82,2.75-13.63c1.83-3.81,4.44-6.75,7.83-8.82c3.39-2.07,7.36-3.1,11.92-3.1c4.38,0,7.96,0.9,10.75,2.7
			c2.79,1.8,4.86,4.27,6.21,7.42s2.03,6.74,2.03,10.75c0,0.78-0.03,1.56-0.09,2.34c-0.06,0.78-0.15,1.68-0.27,2.7H405.3v-6.21h26.01
			l-0.81,0.54c0.06-2.46-0.24-4.71-0.9-6.75c-0.66-2.04-1.77-3.67-3.33-4.9c-1.56-1.23-3.63-1.85-6.21-1.85
			c-2.82,0-5.16,0.77-7.02,2.29c-1.86,1.53-3.24,3.62-4.14,6.26c-0.9,2.64-1.35,5.67-1.35,9.09c0,3.66,0.51,6.86,1.53,9.58
			c1.02,2.73,2.57,4.86,4.63,6.39c2.07,1.53,4.64,2.29,7.7,2.29c2.16,0,4.51-0.42,7.07-1.26c2.55-0.84,5.17-2.1,7.88-3.78l3.15,4.95
			c-3.36,2.34-6.77,4.08-10.21,5.22C425.83,92.21,422.49,92.78,419.25,92.78z"/>
		<path class="st5" d="M457.5,55.88c0,1.74,0.6,3.1,1.8,4.1c1.2,0.99,2.76,1.82,4.68,2.47c1.92,0.66,3.97,1.32,6.17,1.98
			c2.19,0.66,4.24,1.5,6.17,2.52c1.92,1.02,3.49,2.39,4.72,4.1c1.23,1.71,1.85,3.95,1.85,6.71c0,3.24-0.89,5.97-2.66,8.19
			c-1.77,2.22-4.18,3.92-7.25,5.08c-3.06,1.17-6.48,1.75-10.26,1.75c-2.22,0-4.56-0.18-7.02-0.54c-2.46-0.36-4.98-0.9-7.56-1.62
			l0.63-12.69h5.67l0.99,8.55l-0.9-1.08c1.32,0.36,2.75,0.65,4.28,0.85c1.53,0.21,2.92,0.31,4.18,0.31c1.86,0,3.61-0.27,5.27-0.81
			c1.65-0.54,3-1.36,4.05-2.48c1.05-1.11,1.58-2.47,1.58-4.09c0-1.8-0.62-3.22-1.85-4.27c-1.23-1.05-2.8-1.9-4.72-2.56
			c-1.92-0.66-3.95-1.32-6.08-1.98c-2.13-0.66-4.16-1.5-6.08-2.52c-1.92-1.02-3.48-2.37-4.68-4.05c-1.2-1.68-1.8-3.93-1.8-6.75
			c0-3.18,0.81-5.79,2.43-7.83c1.62-2.04,3.78-3.54,6.48-4.5c2.7-0.96,5.58-1.44,8.64-1.44c2.1,0,4.42,0.21,6.98,0.63
			c2.55,0.42,5.17,1.05,7.88,1.89l-0.45,10.89h-5.76l-1.35-7.29l1.26,1.44c-3-0.9-5.76-1.35-8.28-1.35c-2.64,0-4.8,0.57-6.48,1.71
			C458.34,52.34,457.5,53.9,457.5,55.88z"/>
		<path class="st5" d="M279.75,200.78c-4.14,0-7.86-0.66-11.16-1.98c-3.3-1.32-5.9-3.33-7.79-6.03c-1.89-2.7-2.83-6.03-2.83-9.99
			c0-2.82,0.6-5.41,1.8-7.78c1.2-2.37,3.04-4.38,5.53-6.03c2.49-1.65,5.65-2.68,9.5-3.1l0.27,0.99c-5.1-0.54-8.94-2.16-11.52-4.86
			c-2.58-2.7-3.87-5.91-3.87-9.63c0-3.84,0.95-6.96,2.83-9.36c1.89-2.4,4.46-4.17,7.7-5.31c3.24-1.14,6.84-1.71,10.8-1.71
			c3.12,0,6.22,0.29,9.31,0.85c3.09,0.57,6.13,1.4,9.14,2.48l-0.72,13.41h-5.76l-1.44-9.27l1.8,1.26c-2.04-0.6-3.99-1.06-5.85-1.4
			c-1.86-0.33-3.81-0.5-5.85-0.5c-3.9,0-6.97,0.81-9.22,2.43s-3.38,4.23-3.38,7.83c0,3.18,1.24,5.67,3.73,7.47
			c2.49,1.8,5.81,2.7,9.94,2.7h26.46v4.95l-7.74,1.8l1.08-1.71v11.79c0,4.5-0.96,8.3-2.88,11.38c-1.92,3.09-4.58,5.42-7.96,6.98
			C288.29,200,284.31,200.78,279.75,200.78z M280.65,193.58c3.96,0,7.11-1.06,9.45-3.2c2.34-2.13,3.51-5.32,3.51-9.58v-12.24
			l1.71,1.35h-13.5c-3.3,0-6.02,0.53-8.15,1.58c-2.13,1.05-3.71,2.45-4.73,4.19c-1.02,1.74-1.53,3.66-1.53,5.76
			c0,3.84,1.23,6.83,3.69,8.96C273.57,192.52,276.75,193.58,280.65,193.58z"/>
		<path class="st5" d="M363.09,168.29l0.63-0.99c4.08,0.06,7.57,0.66,10.48,1.8c2.91,1.14,5.12,2.83,6.62,5.08
			c1.5,2.25,2.25,5.08,2.25,8.5c0,3.48-0.84,6.51-2.52,9.09c-1.68,2.58-4.25,4.58-7.7,5.98c-3.45,1.41-7.82,2.12-13.09,2.12h-25.65
			v-4.77l8.73-2.07l-1.35,1.98v-53.01l1.62,1.98l-9-1.89v-4.77l16.2-0.45h10.53c4.32,0,7.95,0.58,10.89,1.75
			c2.94,1.17,5.16,2.9,6.66,5.18c1.5,2.28,2.25,5.13,2.25,8.55c0,4.5-1.4,8.1-4.19,10.8C373.66,165.86,369.21,167.57,363.09,168.29z
			 M358.95,143.54h-9.81l1.53-1.62v24.03l-1.53-1.44h7.65c3.12,0,5.77-0.39,7.96-1.17c2.19-0.78,3.84-1.98,4.95-3.6
			c1.11-1.62,1.67-3.66,1.67-6.12c0-2.4-0.49-4.33-1.48-5.81c-0.99-1.47-2.4-2.55-4.23-3.24
			C363.82,143.89,361.59,143.54,358.95,143.54z M358.95,193.22c3.18,0,5.85-0.4,8.01-1.21c2.16-0.81,3.81-2.04,4.95-3.69
			c1.14-1.65,1.71-3.73,1.71-6.25c0-2.46-0.51-4.5-1.53-6.12c-1.02-1.62-2.45-2.85-4.28-3.69c-1.83-0.84-3.98-1.26-6.43-1.26h-12.24
			l1.53-1.71v25.47l-1.53-1.53H358.95z"/>
		<path class="st5" d="M413.04,200.78c-4.14,0-7.79-0.91-10.93-2.75c-3.15-1.83-5.61-4.53-7.38-8.1c-1.77-3.57-2.66-7.93-2.66-13.1
			c0-5.28,0.91-9.82,2.75-13.63c1.83-3.81,4.44-6.75,7.83-8.82c3.39-2.07,7.36-3.1,11.92-3.1c4.38,0,7.96,0.9,10.75,2.7
			c2.79,1.8,4.86,4.27,6.21,7.42s2.03,6.74,2.03,10.75c0,0.78-0.03,1.56-0.09,2.34c-0.06,0.78-0.15,1.68-0.27,2.7h-34.11v-6.21
			h26.01l-0.81,0.54c0.06-2.46-0.24-4.71-0.9-6.75c-0.66-2.04-1.77-3.67-3.33-4.9c-1.56-1.23-3.63-1.85-6.21-1.85
			c-2.82,0-5.16,0.77-7.02,2.29c-1.86,1.53-3.24,3.62-4.14,6.26c-0.9,2.64-1.35,5.67-1.35,9.09c0,3.66,0.51,6.86,1.53,9.58
			c1.02,2.73,2.57,4.86,4.63,6.39c2.07,1.53,4.64,2.29,7.7,2.29c2.16,0,4.51-0.42,7.07-1.26c2.55-0.84,5.17-2.1,7.88-3.78l3.15,4.95
			c-3.36,2.34-6.77,4.08-10.21,5.22C419.62,200.21,416.28,200.78,413.04,200.78z"/>
		<path class="st5" d="M462.27,200.78c-4.14,0-7.79-0.91-10.93-2.75c-3.15-1.83-5.61-4.53-7.38-8.1c-1.77-3.57-2.66-7.93-2.66-13.1
			c0-5.28,0.91-9.82,2.75-13.63c1.83-3.81,4.44-6.75,7.83-8.82c3.39-2.07,7.36-3.1,11.92-3.1c4.38,0,7.96,0.9,10.75,2.7
			c2.79,1.8,4.86,4.27,6.21,7.42s2.03,6.74,2.03,10.75c0,0.78-0.03,1.56-0.09,2.34c-0.06,0.78-0.15,1.68-0.27,2.7h-34.11v-6.21
			h26.01l-0.81,0.54c0.06-2.46-0.24-4.71-0.9-6.75c-0.66-2.04-1.77-3.67-3.33-4.9c-1.56-1.23-3.63-1.85-6.21-1.85
			c-2.82,0-5.16,0.77-7.02,2.29c-1.86,1.53-3.24,3.62-4.14,6.26c-0.9,2.64-1.35,5.67-1.35,9.09c0,3.66,0.51,6.86,1.53,9.58
			c1.02,2.73,2.57,4.86,4.63,6.39c2.07,1.53,4.64,2.29,7.7,2.29c2.16,0,4.51-0.42,7.07-1.26c2.55-0.84,5.17-2.1,7.88-3.78l3.15,4.95
			c-3.36,2.34-6.77,4.08-10.21,5.22C468.85,200.21,465.51,200.78,462.27,200.78z"/>
		<path class="st5" d="M500.52,163.88c0,1.74,0.6,3.1,1.8,4.1c1.2,0.99,2.76,1.82,4.68,2.47c1.92,0.66,3.97,1.32,6.17,1.98
			c2.19,0.66,4.24,1.5,6.17,2.52c1.92,1.02,3.49,2.39,4.72,4.1c1.23,1.71,1.85,3.95,1.85,6.71c0,3.24-0.89,5.97-2.66,8.19
			c-1.77,2.22-4.18,3.92-7.25,5.08c-3.06,1.17-6.48,1.75-10.26,1.75c-2.22,0-4.56-0.18-7.02-0.54c-2.46-0.36-4.98-0.9-7.56-1.62
			l0.63-12.69h5.67l0.99,8.55l-0.9-1.08c1.32,0.36,2.75,0.65,4.28,0.85c1.53,0.21,2.92,0.31,4.18,0.31c1.86,0,3.61-0.27,5.27-0.81
			c1.65-0.54,3-1.36,4.05-2.48c1.05-1.11,1.58-2.47,1.58-4.09c0-1.8-0.62-3.22-1.85-4.27c-1.23-1.05-2.8-1.9-4.72-2.56
			c-1.92-0.66-3.95-1.32-6.08-1.98c-2.13-0.66-4.16-1.5-6.08-2.52c-1.92-1.02-3.48-2.37-4.68-4.05c-1.2-1.68-1.8-3.93-1.8-6.75
			c0-3.18,0.81-5.79,2.43-7.83c1.62-2.04,3.78-3.54,6.48-4.5c2.7-0.96,5.58-1.44,8.64-1.44c2.1,0,4.42,0.21,6.98,0.63
			c2.55,0.42,5.17,1.05,7.88,1.89l-0.45,10.89h-5.76l-1.35-7.29l1.26,1.44c-3-0.9-5.76-1.35-8.28-1.35c-2.64,0-4.8,0.57-6.48,1.71
			C501.36,160.34,500.52,161.9,500.52,163.88z"/>
	</g>
</g>
</svg>
