<svg xmlns="http://www.w3.org/2000/svg" viewBox="0 0 298 298"><defs><style>.cls-1{fill:#093817;stroke-width:10px;}.cls-1,.cls-2{stroke:#ece7c4;stroke-miterlimit:10;}.cls-2{fill:#d15329;stroke-width:6px;}.cls-3{fill:#f15a29;}.cls-4{fill:#ffa622;}.cls-5{fill:#ebe7c4;}</style></defs><g id="Layer_4" data-name="Layer 4"><rect class="cls-1" x="5" y="5" width="288" height="288"/></g><g id="Layer_1" data-name="Layer 1"><polygon class="cls-2" points="12.51 79.91 66.94 132.44 9.34 145.73 43.2 177.7 6.81 223.58 77.38 243.2 77.38 286.87 138.77 250.8 141.3 286.87 201.75 219.15 253.01 282.76 260.92 263.14 208.08 215.35 283.08 159.66 247.95 153.65 291.3 97.95 248.27 92.57 237.51 19.15 187.19 50.16 159.66 11.87 139.72 67.57 94.47 8.71 77.06 33.39 31.18 19.47 39.72 66.62 12.51 79.91"/></g><g id="Layer_3" data-name="Layer 3"><path class="cls-3" d="M103.22,87.27a19.84,19.84,0,0,0-.61,11.24,2.51,2.51,0,0,0,2.41,1.84,2.65,2.65,0,0,0,2.41-1.84c2.16-5.25-1.46-11-6.29-13.16a15.67,15.67,0,0,0-8-1.35,6.8,6.8,0,0,0-4.43,2,5.41,5.41,0,0,0-1.31,4.78,2.5,2.5,0,0,0,3.07,1.74,2.56,2.56,0,0,0,1.75-3.07c0,.24,0,.28,0,.09s0-.15,0,.11c.45-.55-.36.32.12-.25-.23.27,0,0,.14-.12s.11-.11,0,0l.31-.19c.16-.07.16-.08,0,0l.25-.08s.78-.16.38-.1a8,8,0,0,1,1.47,0l.63,0c.09,0,.76.09.32,0a14.15,14.15,0,0,1,1.47.29,8.3,8.3,0,0,1,2.17.81,10.45,10.45,0,0,1,1.15.71c.2.14-.14-.15.17.13s.37.33.54.51.32.34.48.52c-.23-.27,0,0,.1.15a8.36,8.36,0,0,1,.65,1.12c.31.65-.11-.4.1.28.07.23.14.45.2.68s.08.38.12.57,0-.33,0,.14c0,.23,0,.46,0,.69s-.14.74,0,.26a10.67,10.67,0,0,1-.4,1.33h4.82c-.08-.37-.16-.73-.22-1.1l0-.28q0,.24,0,0c0-.18,0-.37,0-.56a17,17,0,0,1,0-2.37,9.53,9.53,0,0,1,.25-1.84,17,17,0,0,1,.7-2.41,2.51,2.51,0,0,0-1.75-3.08,2.56,2.56,0,0,0-3.07,1.75Z" transform="translate(5.42 5)"/><path class="cls-3" d="M117.28,118.27a13.78,13.78,0,0,0,.52,5.88,5.65,5.65,0,0,0,1.51,2.57,3.75,3.75,0,0,0,3.66.85,5.93,5.93,0,0,0,2.79-2.38,12.49,12.49,0,0,0,1.33-2.11,9.09,9.09,0,0,0,.9-5.83,6.68,6.68,0,0,0-3.06-4.41,6.82,6.82,0,0,0-6.25-.07,10.63,10.63,0,0,0-4.22,3.5,7.43,7.43,0,0,0-1.33,5.64,5.68,5.68,0,0,0,4.06,4.56,5.21,5.21,0,0,0,5.8-2.31,2.5,2.5,0,1,0-4.32-2.52l-.06.11c-.14.21-.09.15.16-.2,0,0-.16.16-.18.18l.31-.23-.22.14c-.37.25.48-.12.19-.07a1.58,1.58,0,0,0-.31.09c-.45.14.51,0,.21,0-.1,0-.23,0-.33,0-.45,0,.62.19.08,0a1.28,1.28,0,0,0-.32-.09c.42,0,.47.22.18,0s.07-.08.11.11a3,3,0,0,0-.31-.31s.33.52.12.15l-.22-.38c-.17-.28.14,0,.08.19,0-.09-.13-.39-.15-.5-.08-.37.12-.17,0,.15a2.3,2.3,0,0,0,0-.45c0-.1,0-.2,0-.3,0-.53-.16.57,0,.07,0-.12.14-.76.25-.78s-.26.49-.05.15c.11-.19.21-.39.33-.57a1.73,1.73,0,0,0,.19-.28l-.19.25.21-.26c.19-.21.38-.41.58-.6l.25-.22.13-.11c.21-.17.17-.14-.12.08.3-.13.56-.39.85-.55l.3-.16.15-.07c.25-.11.21-.09-.13,0a3.31,3.31,0,0,0,.8-.23c.52-.16-.45,0-.1,0l.4,0c.12,0,.54.1.15,0l.3.09c.52.11-.36-.21-.09,0l.31.18c.43.23-.34-.32-.11-.09.08.08.17.15.25.24s.37.41.08.07,0,0,0,.1.14.26.21.38c.22.4-.16-.53,0-.06.07.24.13.47.19.71.13.52,0-.61,0-.08,0,.1,0,.19,0,.29s0,.29,0,.44.09.07,0-.17a2.78,2.78,0,0,1-.25,1,1.76,1.76,0,0,1-.18.5s.26-.53,0-.11c-.13.26-.26.53-.41.78s-.32.51-.48.76l-.32.44c-.35.49.35-.41,0,.06l-.32.37c-.16.16-.48.3,0,0l.32-.12c.41,0,.48,0,.22,0l.41,0c.39.19.47.21.24.08l.3.22c-.13-.15-.13-.13,0,0,.24.39-.08-.16-.12-.23-.26-.43.14.44,0,.12s-.13-.38-.18-.58c-.1-.37-.18-.76-.25-1.14s0,0,0,.08a6.48,6.48,0,0,1-.07-.77,13,13,0,0,1,.09-2.34,2.46,2.46,0,0,0-.73-1.77,2.51,2.51,0,0,0-3.54,0,2.93,2.93,0,0,0-.73,1.77Z" transform="translate(5.42 5)"/><path class="cls-4" d="M85.57,79.34a70.92,70.92,0,0,0-8.86,23.42l6,15.51,9.81,7,1.58,10.58,3.6,11.23L96.33,168l-2.22,58.54,7,14.88,14.42,3.16,12.79-25.31,10.13-5.38,1.9-2.85,23.1,8.86,28.48-3.8L203,200.23l5.38-21.84-5.69-19.62,9.49-5.69v-6.65l26.9-5.38,4.11-12-7.27-9.14-24.37-8L147,103.08l-15.19-7L117.85,79.34,99.49,73.65Z" transform="translate(5.42 5)"/></g><g id="Layer_2" data-name="Layer 2"><path class="cls-5" d="M94.17,160.06c-6.39,3.11-8.18,8.13-8.44,14.33a84.63,84.63,0,0,1-2,13.47c-.17.81-2.54,2-2.75,1.83-1.16-1.06-2.81-2.58-2.72-3.83.38-4.94,1.34-9.83,2.09-14.75.3-1.91.5-3.85,1-5.73,1.49-6.18,7-8.87,11.28-12.53,3-2.54,3.48-12.13.42-14.56a3.85,3.85,0,0,0-2.14-.48c-2.07-.06-4.15-.11-6.21,0-4,.23-7.39-1-9.76-4.17s-5.76-3.94-9.39-4.36c-5.37-.61-7.8.58-13.15-.14-.85-.11-4.34,2.09-4.83,1.53-.76-.89,12.66-4,12.69-5.07,0-.6-7.64-6.06-6.79-6,3.66.22,1.92,2.68,5.56,3.17,4.39.6,8.81,1.06,13.11,2.06a10.37,10.37,0,0,1,5,3.23c3.5,3.95,5.82,4.68,14.34,3.55.74-2.22.44-3.63-1.9-5.22-9-6.15-14.34-14.81-14.57-25.83C74.77,95.5,76.17,90.41,76.94,85a52.9,52.9,0,0,0-27.3.48c-3,.81-5.78,2.51-8.8,3.21a5.11,5.11,0,0,1-4.26-1.53c-1.06-1.3-.56-2.8,1.47-3.78,12.82-6.25,26.16-7.34,39.86-4,2.9.7,4.4-.48,6.56-1.8,3.52-2.17,3.45-5.15,3.32-8.54a56.4,56.4,0,0,1,4.36-24,87.83,87.83,0,0,1,5.7-10.87c2.08-3.5,4.82-3.89,6.16-1a3.71,3.71,0,0,1-.21,3.16c-5.58,7.85-9.22,16.35-9.57,26.14-.11,3.14-.65,6.28-1.06,10,2.82-.54,4.76-1.18,6.73-1.25,11.66-.4,21,4.32,28.24,13.3a22.19,22.19,0,0,1,3.5,6.52c.85,2.43,2.21,3.54,4.92,3.46.7-3.16,1.83-6.3,1.91-9.46.05-1.77-1.77-3.53-2.57-5.37-.89-2-2.22-4.08-2.24-6.13-.06-7.71-1.37-6.74-.88-14.43.08-1.2,6.75-13,7.83-14.1.88,1.2-.66,4.41-.66,5.62a137.29,137.29,0,0,1-.77,15.58c-.5,4.64-.87,8.86,2.88,12.68a8.22,8.22,0,0,1,2,8.46,38.34,38.34,0,0,0-1.27,7.34,3.54,3.54,0,0,0,.69,2.59,14.05,14.05,0,0,0,10.77,3.64c1.86-.1,3.66-2.44,5.38-3.9,3.64-3.09,7.16-6.65,12.23-6.77,5.36-.12,10.73.44,16.09.69a17.71,17.71,0,0,0,2.82,0c2.27-.25,4.77,1.34,4.83,3.23.1,3-2.42,3-4.13,3-5.58-.14-11.15-.72-16.73-1-4.82-.29-7.85,2.69-11.15,6.21,12.36,1.64,24.23,3.09,36.06,4.82,9.07,1.32,18.26,2.35,27.07,4.71,7.84,2.09,14.54,6.85,18.31,14.45,4.42,8.94-.73,17.87-9.86,19.42-6,1-11.84,2.5-17.73,3.88a3.36,3.36,0,0,0-2.12,1.55c-2.37,5.77-2.32,5.79-6.62,8.09.9,8.24,2.65,16.17,2.44,24-.51,19.06-11,33.66-30.54,38.06-8.78,2-17.49.69-25.89-2.37-4.1-1.5-8.05-3.42-12.24-5.22-2.19,4.25-5.64,6.32-10.64,5.59-2.39,5.53-4.65,11.14-7.23,16.6-1.37,2.88-2.84,6-5,8.15-5.58,5.5-15.13,2.78-19.19-2.06-8.67-10.32-9.83-22.49-8.21-35.26.07-.54.15-1.08.17-1.62.24-8.69.38-17.39.75-26.07.22-5.41.8-10.8,1.19-16.2A27.49,27.49,0,0,0,94.17,160.06Zm-2.1-38.95a8.18,8.18,0,0,0,.82-1.31c.5-1.2.89-2.45,1.39-3.65A35.87,35.87,0,0,1,109.5,98.31c1.8-1,3.38-.34,4.37,1.47s.25,3-1.39,4c-1.27.77-2.38,1.82-3.59,2.7-11.53,8.43-15.81,27.14-5.29,39.42,5.14,6,11.14,8,18.43,6.25,9.33-2.26,16.66-8,22.89-15a32.18,32.18,0,0,0,6.8-11.25c3.5-11.15-3.23-20.28-13.24-24.54-4.7-2-9.64-2.28-14.69-2.27-1.1,0-2.2-1.74-3.29-2.67a19,19,0,0,1,2.86-2.94c.67-.46,1.8-.28,2.76-.39C123.55,85,113.46,76.55,102,77c-9.65.39-18.51,5.83-21.08,17.76A25.34,25.34,0,0,0,92.07,121.11Zm66.84-.29a5.56,5.56,0,0,0,1.49,6.73q13.53,13,27.21,25.93c2.21,2.08,4.59,4.23,8,3.22,3.94-1.15,7.89-2.33,11.69-3.85,2.81-1.14,3-3.28.43-5.16a48.17,48.17,0,0,0-5.37-3c-8.4-4.68-16.76-9.45-25.23-14-2-1.08-3-2.28-2.13-4.34.94-2.33,2.89-1.65,4.4-.82,10.53,5.74,21,11.62,31.52,17.34a6.79,6.79,0,0,0,4.13.76c6.59-1.19,13.15-2.54,19.68-4,5.13-1.14,7.72-7.83,4.86-11.88a29.33,29.33,0,0,0-18.89-12c-8.35-1.62-16.89-2.3-25.34-3.44-9-1.22-17.95-2.53-26.94-3.73-4.66-.63-9.33-1.12-14.25-1.7,1.89,4.68,4.33,8.11,8.8,9.75,1.31.47,2.4,1.48,3.68,2.07,2.05,1,1.68,2.6.75,3.75a3.85,3.85,0,0,1-3.32,1C162.3,123,160.7,121.79,158.91,120.82ZM100.58,151.5c-.35,5.35-.79,10.19-1,15-.51,12.57-.89,25.14-1.37,37.71-.15,4.22-.32,8.44-.68,12.65A27.06,27.06,0,0,0,105.61,239c3.47,3.54,9.36,3,11.62-1.39a206,206,0,0,0,8.2-19,8.45,8.45,0,0,0,0-5.24c-1.86-6-4.15-11.84-6.07-17.8-3.82-11.82-7.77-23.61-11.12-35.57C107.05,155.62,104.19,153.71,100.58,151.5Zm95.86,10.93c-.06,1,0,1.78-.16,2.52a19.68,19.68,0,0,1-.61,2.52c-2.85,9.52-8.5,17-16,23.45-8.78,7.5-18.4,12.46-30.18,12.24-2.51,0-2.89,1.62-3.66,3.36-.92,2.09.66,2.46,1.77,3.14a33.9,33.9,0,0,0,4,2.07c10.77,4.81,21.83,6.43,33.08,2.1,11-4.26,17.5-12.84,20.07-24.07a47.89,47.89,0,0,0-2.08-27.09,2.81,2.81,0,0,0-2.26-1.18A18.66,18.66,0,0,0,196.44,162.43Zm-10.59-2.85a18,18,0,0,1-1.26,2.9c-.92,1.34-1.57,3.38-3.94,2.15-2.07-1.06-2.34-2.55-1.37-4.61a55.29,55.29,0,0,0,1.93-5.32l-8.48-7.79a76.89,76.89,0,0,1-36.08,29.88c1.89,3.05,3.5,5.85,5.33,8.49a3.53,3.53,0,0,0,2.56,1.38,9.53,9.53,0,0,0,4.37-1.06c5.89-3.36,11.77-6.79,17.48-10.45,2.32-1.49,4.08-3.85,6.39-5.37.79-.52,2.68,0,3.66.68.51.34.6,2.37.09,3A53.31,53.31,0,0,1,159.85,187c-4.13,2.25-8.63,3.82-13,5.74.55,1.47,1.11,3,1.94,5.18,4-.83,8.25-1.07,12-2.56C173.39,190.3,183.26,182,189,169.19,191.35,163.8,191.15,162.54,185.85,159.58Zm-29.49-28.32a55.82,55.82,0,0,1-32.16,26.67c2.21,3.45,4.46,6.59,6.33,9.94,1.74,3.13,3.54,3.78,7,2.15a67.89,67.89,0,0,0,18.87-13,116.45,116.45,0,0,0,10.42-12.66,3.57,3.57,0,0,0,0-3.43C163.51,137.62,160,134.58,156.36,131.26ZM113.5,158.32c3.45,10.8,6.81,21.28,10.15,31.77,1.84,5.76,3.48,11.59,5.58,17.25.86,2.28,2.34,5.44,4.19,6,3.21,1,3.73-2.73,4.78-5a2.09,2.09,0,0,1,.17-.28c4.21-5.83,5.45-11.13.41-17.8-7-9.25-12.71-19.45-19-29.23A5.47,5.47,0,0,0,113.5,158.32Z" transform="translate(5.42 5)"/></g></svg>