<svg xmlns="http://www.w3.org/2000/svg" viewBox="0 0 298 298"><defs><style>.cls-1,.cls-2{fill:none;stroke:#ece7c4;stroke-miterlimit:10;}.cls-1{stroke-width:10px;}.cls-2{stroke-width:6px;}.cls-3{fill:#ebe7c4;}</style></defs><g id="Layer_4" data-name="Layer 4"><rect class="cls-1" x="5" y="5" width="288" height="288"/></g><g id="Layer_1" data-name="Layer 1"><polygon class="cls-2" points="12.51 79.91 66.94 132.44 9.34 145.73 43.2 177.7 6.81 223.58 77.38 243.2 77.38 286.87 138.77 250.8 141.3 286.87 201.75 219.15 253.01 282.76 260.92 263.14 208.08 215.35 283.08 159.66 247.95 153.65 291.3 97.95 248.27 92.57 237.51 19.15 187.19 50.16 159.66 11.87 139.72 67.57 94.47 8.71 77.06 33.39 31.18 19.47 39.72 66.62 12.51 79.91"/></g><g id="Layer_2" data-name="Layer 2"><path class="cls-3" d="M94.45,160.35c-6.4,3.11-8.18,8.13-8.44,14.33A83.52,83.52,0,0,1,84,188.15c-.16.81-2.53,2-2.75,1.83-1.15-1.06-2.81-2.58-2.71-3.83.38-4.94,1.34-9.84,2.09-14.75.3-1.91.5-3.85,1-5.73,1.49-6.18,7-8.87,11.28-12.54,3-2.53,3.49-12.12.42-14.55a3.84,3.84,0,0,0-2.14-.49c-2.07-.05-4.14-.1-6.21,0-4,.23-7.38-1-9.76-4.17s-5.75-3.94-9.39-4.36c-5.36-.61-14.93,2-17.77,1-1.11-.38,11.59-3.91,11.61-5,0-.59-5-4.06-4.16-4,3.66.22.17,1,3.81,1.5,4.38.6,8.81,1.06,13.11,2.06a10.3,10.3,0,0,1,5,3.23c3.49,4,5.82,4.68,14.33,3.55.75-2.22.44-3.63-1.89-5.22-9-6.15-14.34-14.81-14.58-25.83-.11-5.06,1.3-10.15,2.06-15.54a52.86,52.86,0,0,0-27.29.48c-3,.81-5.78,2.51-8.8,3.21a5.14,5.14,0,0,1-4.26-1.53c-1.06-1.3-.56-2.8,1.47-3.78,12.82-6.25,26.16-7.34,39.86-4,2.9.7,4.39-.48,6.55-1.81,3.53-2.16,3.46-5.14,3.33-8.53a56.46,56.46,0,0,1,4.35-24,89.89,89.89,0,0,1,5.71-10.86c2.07-3.5,4.82-3.89,6.16-1a3.73,3.73,0,0,1-.21,3.15c-5.58,7.86-9.23,16.36-9.57,26.15-.11,3.14-.65,6.28-1.06,10a50.33,50.33,0,0,1,6.72-1.25c11.66-.4,21,4.32,28.24,13.3a22,22,0,0,1,3.51,6.52c.84,2.43,2.2,3.54,4.92,3.46.69-3.16,1.83-6.3,1.91-9.47,0-1.76-1.77-3.52-2.58-5.36-.88-2-2.21-4.08-2.23-6.13-.06-7.71-.44-3.93.05-11.62.08-1.2,4.67-13.63,5.74-14.77.89,1.21.49,2.27.5,3.48a137.52,137.52,0,0,1-.77,15.58c-.5,4.64-.87,8.86,2.87,12.68a8.18,8.18,0,0,1,2,8.46,38.19,38.19,0,0,0-1.26,7.34,3.58,3.58,0,0,0,.68,2.59,14.07,14.07,0,0,0,10.78,3.64c1.86-.1,3.66-2.45,5.38-3.9,3.64-3.09,7.15-6.65,12.23-6.77,5.35-.13,10.72.44,16.09.69a17.71,17.71,0,0,0,2.82,0c2.27-.25,4.76,1.34,4.83,3.23.09,3-2.42,3-4.13,3-5.58-.13-11.15-.71-16.73-1-4.83-.28-7.85,2.7-11.15,6.22,12.35,1.64,24.23,3.09,36.06,4.82,9.07,1.32,18.25,2.35,27.07,4.7,7.83,2.1,14.54,6.86,18.3,14.46,4.43,8.94-.73,17.87-9.86,19.42-5.95,1-11.83,2.5-17.72,3.88a3.36,3.36,0,0,0-2.12,1.55c-2.37,5.77-2.33,5.79-6.62,8.08.89,8.25,2.64,16.18,2.44,24.05-.51,19.06-11,33.66-30.54,38.06-8.78,2-17.5.69-25.89-2.37-4.1-1.5-8.05-3.42-12.25-5.23-2.18,4.26-5.64,6.33-10.64,5.6-2.38,5.53-4.64,11.14-7.23,16.6-1.36,2.88-2.83,6-5,8.15-5.57,5.5-15.13,2.78-19.19-2.06C92,232,90.84,219.81,92.47,207c.07-.54.15-1.08.17-1.62.24-8.69.38-17.39.74-26.08.23-5.4.81-10.79,1.19-16.19A24.58,24.58,0,0,0,94.45,160.35ZM92.34,121.4a8.25,8.25,0,0,0,.83-1.31c.5-1.2.89-2.45,1.38-3.65A35.89,35.89,0,0,1,109.78,98.6c1.79-1,3.38-.35,4.37,1.46s.25,3-1.39,4c-1.28.77-2.38,1.82-3.59,2.7-11.54,8.43-15.81,27.14-5.3,39.42,5.14,6,11.15,8,18.43,6.25,9.34-2.26,16.67-8,22.9-15A32.18,32.18,0,0,0,152,126.2c3.5-11.16-3.23-20.29-13.25-24.54-4.69-2-9.64-2.29-14.69-2.27-1.09,0-2.19-1.74-3.29-2.67a19.45,19.45,0,0,1,2.86-2.94c.68-.47,1.8-.28,2.77-.39-2.57-8.1-12.66-16.55-24.17-16.09-9.65.39-18.51,5.83-21.08,17.76A25.35,25.35,0,0,0,92.34,121.4Zm66.84-.29a5.57,5.57,0,0,0,1.5,6.73q13.53,13,27.21,25.93c2.2,2.07,4.59,4.23,8,3.22,3.93-1.15,7.88-2.33,11.68-3.86,2.82-1.13,3-3.28.44-5.15a46.61,46.61,0,0,0-5.37-3c-8.41-4.69-16.76-9.46-25.24-14-2-1.08-3-2.28-2.13-4.34,1-2.33,2.9-1.65,4.41-.82,10.53,5.74,21,11.62,31.52,17.34a6.85,6.85,0,0,0,4.13.76c6.58-1.19,13.14-2.54,19.68-4,5.13-1.14,7.72-7.83,4.86-11.88A29.33,29.33,0,0,0,221,116c-8.35-1.62-16.89-2.3-25.34-3.44-9-1.22-18-2.53-26.94-3.74-4.66-.62-9.33-1.11-14.25-1.69,1.88,4.68,4.33,8.11,8.8,9.75,1.3.47,2.4,1.48,3.68,2.07,2,1,1.68,2.6.74,3.75a3.83,3.83,0,0,1-3.32,1A27.82,27.82,0,0,1,159.18,121.11Zm-58.32,30.68c-.36,5.34-.79,10.19-1,15-.5,12.57-.89,25.14-1.36,37.71-.16,4.22-.33,8.44-.68,12.65a27.06,27.06,0,0,0,8.06,22.06c3.46,3.54,9.36,3,11.62-1.39a206,206,0,0,0,8.2-19,8.52,8.52,0,0,0,0-5.24c-1.87-6-4.15-11.84-6.08-17.8-3.82-11.82-7.76-23.61-11.11-35.57C107.32,155.91,104.47,154,100.86,151.79Zm95.86,10.93c-.06,1,0,1.78-.16,2.52a20.1,20.1,0,0,1-.61,2.52c-2.85,9.52-8.5,17-16,23.45-8.78,7.5-18.4,12.46-30.19,12.24-2.5,0-2.88,1.62-3.65,3.36-.93,2.09.66,2.46,1.77,3.14a33.15,33.15,0,0,0,4,2.07c10.76,4.81,21.83,6.43,33.08,2.09,11-4.25,17.5-12.83,20.06-24.06,2.08-9.11,1.09-18.27-2.07-27.09a2.81,2.81,0,0,0-2.26-1.18A18.66,18.66,0,0,0,196.72,162.72Zm-10.6-2.85a16.41,16.41,0,0,1-1.26,2.9c-.92,1.34-1.57,3.38-3.94,2.15-2.07-1.07-2.34-2.55-1.36-4.61a55.17,55.17,0,0,0,1.92-5.32l-8.47-7.8a76.9,76.9,0,0,1-36.08,29.89c1.89,3,3.5,5.85,5.33,8.49a3.57,3.57,0,0,0,2.56,1.38,9.45,9.45,0,0,0,4.36-1.06c5.9-3.36,11.77-6.79,17.49-10.45,2.32-1.49,4.08-3.85,6.38-5.37.79-.52,2.69,0,3.67.67.51.35.6,2.38.09,3a53.15,53.15,0,0,1-16.68,13.54c-4.13,2.25-8.63,3.83-13.06,5.74.56,1.48,1.11,3,2,5.18,4-.82,8.24-1.06,11.95-2.55,12.7-5.08,22.57-13.39,28.26-26.19C191.63,164.09,191.42,162.83,186.12,159.87Zm-29.48-28.33a55.86,55.86,0,0,1-32.17,26.68c2.22,3.45,4.47,6.59,6.33,9.94,1.75,3.13,3.55,3.78,7,2.15a67.79,67.79,0,0,0,18.88-13c3.87-3.83,7.11-8.31,10.42-12.66a3.54,3.54,0,0,0-.05-3.43C163.79,137.9,160.27,134.87,156.64,131.54Zm-42.86,27.07,10.15,31.77c1.84,5.76,3.48,11.59,5.58,17.25.85,2.28,2.33,5.44,4.19,6,3.2,1,3.73-2.73,4.78-5a2,2,0,0,1,.16-.28c4.22-5.83,5.45-11.13.41-17.8-7-9.25-12.7-19.45-19-29.23A5.45,5.45,0,0,0,113.78,158.61Z" transform="translate(5.42 5)"/></g></svg>